# xmcd
#
# Track frame offsets: 
#        150
#        15969
#        30040
#        49558
#        66151
#        76908
#        92809
#        107334
#        125528
#        138233
#
# Disc length: 2036 seconds
#
# Revision: 0
# Processed by: cddbd v1.5.2PL0 Copyright (c) Steve Scherf et al.
# Submitted via: ExactAudioCopy v1.1
#
DISCID=6807f20a
DTITLE=Country Yossi - Strike Again 
DYEAR=2005
DGENRE=
TTITLE0=Modeh Ani
TTITLE1=Flyin Lukshin Kugel Eater
TTITLE2=Nebich Of The Shteeble
TTITLE3=A Boy Named Zlateh
TTITLE4=Moishe Shmeel
TTITLE5=Oh, My Yerushalayim
TTITLE6=Shlomo
TTITLE7=Ahvaira
TTITLE8=Make-believe
TTITLE9=The Shteeble Hop
EXTD=
EXTT0=
EXTT1=
EXTT2=
EXTT3=
EXTT4=
EXTT5=
EXTT6=
EXTT7=
EXTT8=
EXTT9=
PLAYORDER=
